<mxfile host="www.draw.io" modified="2020-01-14T04:16:45.091Z" agent="Mozilla/5.0 (Windows NT 10.0; Win64; x64) AppleWebKit/537.36 (KHTML, like Gecko) Chrome/78.0.3904.92 Safari/537.36 Vivaldi/2.9.1705.38" etag="45GBxyApoqaRPaOgXFGI" version="12.5.1" type="github">
  <diagram id="gvmDLg7hdBk43QmgxOMV" name="Page-1">
    <mxGraphModel dx="753" dy="482" grid="1" gridSize="10" guides="1" tooltips="1" connect="1" arrows="1" fold="1" page="1" pageScale="1" pageWidth="827" pageHeight="1169" math="0" shadow="0">
      <root>
        <mxCell id="0"/>
        <mxCell id="1" parent="0"/>
        <mxCell id="FK4Q3kuTDBUWVzhtZBnx-1" value="Users" style="swimlane;fontStyle=0;childLayout=stackLayout;horizontal=1;startSize=26;fillColor=#e0e0e0;horizontalStack=0;resizeParent=1;resizeParentMax=0;resizeLast=0;collapsible=1;marginBottom=0;swimlaneFillColor=#ffffff;align=center;fontSize=14;" vertex="1" parent="1">
          <mxGeometry x="60" y="20" width="160" height="144" as="geometry"/>
        </mxCell>
        <mxCell id="FK4Q3kuTDBUWVzhtZBnx-2" value="id" style="shape=partialRectangle;top=0;left=0;right=0;bottom=1;align=left;verticalAlign=middle;fillColor=none;spacingLeft=34;spacingRight=4;overflow=hidden;rotatable=0;points=[[0,0.5],[1,0.5]];portConstraint=eastwest;dropTarget=0;fontStyle=5;fontSize=12;" vertex="1" parent="FK4Q3kuTDBUWVzhtZBnx-1">
          <mxGeometry y="26" width="160" height="30" as="geometry"/>
        </mxCell>
        <mxCell id="FK4Q3kuTDBUWVzhtZBnx-3" value="PK" style="shape=partialRectangle;top=0;left=0;bottom=0;fillColor=none;align=left;verticalAlign=middle;spacingLeft=4;spacingRight=4;overflow=hidden;rotatable=0;points=[];portConstraint=eastwest;part=1;fontSize=12;" vertex="1" connectable="0" parent="FK4Q3kuTDBUWVzhtZBnx-2">
          <mxGeometry width="30" height="30" as="geometry"/>
        </mxCell>
        <mxCell id="FK4Q3kuTDBUWVzhtZBnx-4" value="row 1" style="shape=partialRectangle;top=0;left=0;right=0;bottom=0;align=left;verticalAlign=top;fillColor=none;spacingLeft=34;spacingRight=4;overflow=hidden;rotatable=0;points=[[0,0.5],[1,0.5]];portConstraint=eastwest;dropTarget=0;fontSize=12;" vertex="1" parent="FK4Q3kuTDBUWVzhtZBnx-1">
          <mxGeometry y="56" width="160" height="26" as="geometry"/>
        </mxCell>
        <mxCell id="FK4Q3kuTDBUWVzhtZBnx-5" value="" style="shape=partialRectangle;top=0;left=0;bottom=0;fillColor=none;align=left;verticalAlign=top;spacingLeft=4;spacingRight=4;overflow=hidden;rotatable=0;points=[];portConstraint=eastwest;part=1;fontSize=12;" vertex="1" connectable="0" parent="FK4Q3kuTDBUWVzhtZBnx-4">
          <mxGeometry width="30" height="26" as="geometry"/>
        </mxCell>
        <mxCell id="FK4Q3kuTDBUWVzhtZBnx-6" value="row 2" style="shape=partialRectangle;top=0;left=0;right=0;bottom=0;align=left;verticalAlign=top;fillColor=none;spacingLeft=34;spacingRight=4;overflow=hidden;rotatable=0;points=[[0,0.5],[1,0.5]];portConstraint=eastwest;dropTarget=0;fontSize=12;" vertex="1" parent="FK4Q3kuTDBUWVzhtZBnx-1">
          <mxGeometry y="82" width="160" height="26" as="geometry"/>
        </mxCell>
        <mxCell id="FK4Q3kuTDBUWVzhtZBnx-7" value="" style="shape=partialRectangle;top=0;left=0;bottom=0;fillColor=none;align=left;verticalAlign=top;spacingLeft=4;spacingRight=4;overflow=hidden;rotatable=0;points=[];portConstraint=eastwest;part=1;fontSize=12;" vertex="1" connectable="0" parent="FK4Q3kuTDBUWVzhtZBnx-6">
          <mxGeometry width="30" height="26" as="geometry"/>
        </mxCell>
        <mxCell id="FK4Q3kuTDBUWVzhtZBnx-8" value="row 3" style="shape=partialRectangle;top=0;left=0;right=0;bottom=0;align=left;verticalAlign=top;fillColor=none;spacingLeft=34;spacingRight=4;overflow=hidden;rotatable=0;points=[[0,0.5],[1,0.5]];portConstraint=eastwest;dropTarget=0;fontSize=12;" vertex="1" parent="FK4Q3kuTDBUWVzhtZBnx-1">
          <mxGeometry y="108" width="160" height="26" as="geometry"/>
        </mxCell>
        <mxCell id="FK4Q3kuTDBUWVzhtZBnx-9" value="" style="shape=partialRectangle;top=0;left=0;bottom=0;fillColor=none;align=left;verticalAlign=top;spacingLeft=4;spacingRight=4;overflow=hidden;rotatable=0;points=[];portConstraint=eastwest;part=1;fontSize=12;" vertex="1" connectable="0" parent="FK4Q3kuTDBUWVzhtZBnx-8">
          <mxGeometry width="30" height="26" as="geometry"/>
        </mxCell>
        <mxCell id="FK4Q3kuTDBUWVzhtZBnx-10" value="" style="shape=partialRectangle;top=0;left=0;right=0;bottom=0;align=left;verticalAlign=top;fillColor=none;spacingLeft=34;spacingRight=4;overflow=hidden;rotatable=0;points=[[0,0.5],[1,0.5]];portConstraint=eastwest;dropTarget=0;fontSize=12;" vertex="1" parent="FK4Q3kuTDBUWVzhtZBnx-1">
          <mxGeometry y="134" width="160" height="10" as="geometry"/>
        </mxCell>
        <mxCell id="FK4Q3kuTDBUWVzhtZBnx-11" value="" style="shape=partialRectangle;top=0;left=0;bottom=0;fillColor=none;align=left;verticalAlign=top;spacingLeft=4;spacingRight=4;overflow=hidden;rotatable=0;points=[];portConstraint=eastwest;part=1;fontSize=12;" vertex="1" connectable="0" parent="FK4Q3kuTDBUWVzhtZBnx-10">
          <mxGeometry width="30" height="10" as="geometry"/>
        </mxCell>
        <mxCell id="FK4Q3kuTDBUWVzhtZBnx-12" value="Posts" style="swimlane;fontStyle=0;childLayout=stackLayout;horizontal=1;startSize=26;fillColor=#e0e0e0;horizontalStack=0;resizeParent=1;resizeParentMax=0;resizeLast=0;collapsible=1;marginBottom=0;swimlaneFillColor=#ffffff;align=center;fontSize=14;" vertex="1" parent="1">
          <mxGeometry x="350" y="20" width="160" height="144" as="geometry"/>
        </mxCell>
        <mxCell id="FK4Q3kuTDBUWVzhtZBnx-13" value="id" style="shape=partialRectangle;top=0;left=0;right=0;bottom=1;align=left;verticalAlign=middle;fillColor=none;spacingLeft=34;spacingRight=4;overflow=hidden;rotatable=0;points=[[0,0.5],[1,0.5]];portConstraint=eastwest;dropTarget=0;fontStyle=5;fontSize=12;" vertex="1" parent="FK4Q3kuTDBUWVzhtZBnx-12">
          <mxGeometry y="26" width="160" height="30" as="geometry"/>
        </mxCell>
        <mxCell id="FK4Q3kuTDBUWVzhtZBnx-14" value="PK" style="shape=partialRectangle;top=0;left=0;bottom=0;fillColor=none;align=left;verticalAlign=middle;spacingLeft=4;spacingRight=4;overflow=hidden;rotatable=0;points=[];portConstraint=eastwest;part=1;fontSize=12;" vertex="1" connectable="0" parent="FK4Q3kuTDBUWVzhtZBnx-13">
          <mxGeometry width="30" height="30" as="geometry"/>
        </mxCell>
        <mxCell id="FK4Q3kuTDBUWVzhtZBnx-15" value="title" style="shape=partialRectangle;top=0;left=0;right=0;bottom=0;align=left;verticalAlign=top;fillColor=none;spacingLeft=34;spacingRight=4;overflow=hidden;rotatable=0;points=[[0,0.5],[1,0.5]];portConstraint=eastwest;dropTarget=0;fontSize=12;" vertex="1" parent="FK4Q3kuTDBUWVzhtZBnx-12">
          <mxGeometry y="56" width="160" height="26" as="geometry"/>
        </mxCell>
        <mxCell id="FK4Q3kuTDBUWVzhtZBnx-16" value="" style="shape=partialRectangle;top=0;left=0;bottom=0;fillColor=none;align=left;verticalAlign=top;spacingLeft=4;spacingRight=4;overflow=hidden;rotatable=0;points=[];portConstraint=eastwest;part=1;fontSize=12;" vertex="1" connectable="0" parent="FK4Q3kuTDBUWVzhtZBnx-15">
          <mxGeometry width="30" height="26" as="geometry"/>
        </mxCell>
        <mxCell id="FK4Q3kuTDBUWVzhtZBnx-17" value="text" style="shape=partialRectangle;top=0;left=0;right=0;bottom=0;align=left;verticalAlign=top;fillColor=none;spacingLeft=34;spacingRight=4;overflow=hidden;rotatable=0;points=[[0,0.5],[1,0.5]];portConstraint=eastwest;dropTarget=0;fontSize=12;" vertex="1" parent="FK4Q3kuTDBUWVzhtZBnx-12">
          <mxGeometry y="82" width="160" height="26" as="geometry"/>
        </mxCell>
        <mxCell id="FK4Q3kuTDBUWVzhtZBnx-18" value="" style="shape=partialRectangle;top=0;left=0;bottom=0;fillColor=none;align=left;verticalAlign=top;spacingLeft=4;spacingRight=4;overflow=hidden;rotatable=0;points=[];portConstraint=eastwest;part=1;fontSize=12;" vertex="1" connectable="0" parent="FK4Q3kuTDBUWVzhtZBnx-17">
          <mxGeometry width="30" height="26" as="geometry"/>
        </mxCell>
        <mxCell id="FK4Q3kuTDBUWVzhtZBnx-19" value="user_id" style="shape=partialRectangle;top=0;left=0;right=0;bottom=0;align=left;verticalAlign=top;fillColor=none;spacingLeft=34;spacingRight=4;overflow=hidden;rotatable=0;points=[[0,0.5],[1,0.5]];portConstraint=eastwest;dropTarget=0;fontSize=12;" vertex="1" parent="FK4Q3kuTDBUWVzhtZBnx-12">
          <mxGeometry y="108" width="160" height="26" as="geometry"/>
        </mxCell>
        <mxCell id="FK4Q3kuTDBUWVzhtZBnx-20" value="" style="shape=partialRectangle;top=0;left=0;bottom=0;fillColor=none;align=left;verticalAlign=top;spacingLeft=4;spacingRight=4;overflow=hidden;rotatable=0;points=[];portConstraint=eastwest;part=1;fontSize=12;" vertex="1" connectable="0" parent="FK4Q3kuTDBUWVzhtZBnx-19">
          <mxGeometry width="30" height="26" as="geometry"/>
        </mxCell>
        <mxCell id="FK4Q3kuTDBUWVzhtZBnx-21" value="" style="shape=partialRectangle;top=0;left=0;right=0;bottom=0;align=left;verticalAlign=top;fillColor=none;spacingLeft=34;spacingRight=4;overflow=hidden;rotatable=0;points=[[0,0.5],[1,0.5]];portConstraint=eastwest;dropTarget=0;fontSize=12;" vertex="1" parent="FK4Q3kuTDBUWVzhtZBnx-12">
          <mxGeometry y="134" width="160" height="10" as="geometry"/>
        </mxCell>
        <mxCell id="FK4Q3kuTDBUWVzhtZBnx-22" value="" style="shape=partialRectangle;top=0;left=0;bottom=0;fillColor=none;align=left;verticalAlign=top;spacingLeft=4;spacingRight=4;overflow=hidden;rotatable=0;points=[];portConstraint=eastwest;part=1;fontSize=12;" vertex="1" connectable="0" parent="FK4Q3kuTDBUWVzhtZBnx-21">
          <mxGeometry width="30" height="10" as="geometry"/>
        </mxCell>
        <mxCell id="FK4Q3kuTDBUWVzhtZBnx-23" value="Chats" style="swimlane;fontStyle=0;childLayout=stackLayout;horizontal=1;startSize=26;fillColor=#e0e0e0;horizontalStack=0;resizeParent=1;resizeParentMax=0;resizeLast=0;collapsible=1;marginBottom=0;swimlaneFillColor=#ffffff;align=center;fontSize=14;" vertex="1" parent="1">
          <mxGeometry x="350" y="300" width="160" height="196" as="geometry"/>
        </mxCell>
        <mxCell id="FK4Q3kuTDBUWVzhtZBnx-24" value="id" style="shape=partialRectangle;top=0;left=0;right=0;bottom=1;align=left;verticalAlign=middle;fillColor=none;spacingLeft=34;spacingRight=4;overflow=hidden;rotatable=0;points=[[0,0.5],[1,0.5]];portConstraint=eastwest;dropTarget=0;fontStyle=5;fontSize=12;" vertex="1" parent="FK4Q3kuTDBUWVzhtZBnx-23">
          <mxGeometry y="26" width="160" height="30" as="geometry"/>
        </mxCell>
        <mxCell id="FK4Q3kuTDBUWVzhtZBnx-25" value="PK" style="shape=partialRectangle;top=0;left=0;bottom=0;fillColor=none;align=left;verticalAlign=middle;spacingLeft=4;spacingRight=4;overflow=hidden;rotatable=0;points=[];portConstraint=eastwest;part=1;fontSize=12;" vertex="1" connectable="0" parent="FK4Q3kuTDBUWVzhtZBnx-24">
          <mxGeometry width="30" height="30" as="geometry"/>
        </mxCell>
        <mxCell id="FK4Q3kuTDBUWVzhtZBnx-26" value="post_id" style="shape=partialRectangle;top=0;left=0;right=0;bottom=0;align=left;verticalAlign=top;fillColor=none;spacingLeft=34;spacingRight=4;overflow=hidden;rotatable=0;points=[[0,0.5],[1,0.5]];portConstraint=eastwest;dropTarget=0;fontSize=12;" vertex="1" parent="FK4Q3kuTDBUWVzhtZBnx-23">
          <mxGeometry y="56" width="160" height="26" as="geometry"/>
        </mxCell>
        <mxCell id="FK4Q3kuTDBUWVzhtZBnx-27" value="" style="shape=partialRectangle;top=0;left=0;bottom=0;fillColor=none;align=left;verticalAlign=top;spacingLeft=4;spacingRight=4;overflow=hidden;rotatable=0;points=[];portConstraint=eastwest;part=1;fontSize=12;" vertex="1" connectable="0" parent="FK4Q3kuTDBUWVzhtZBnx-26">
          <mxGeometry width="30" height="26" as="geometry"/>
        </mxCell>
        <mxCell id="FK4Q3kuTDBUWVzhtZBnx-28" value="propetary(user_id)" style="shape=partialRectangle;top=0;left=0;right=0;bottom=0;align=left;verticalAlign=top;fillColor=none;spacingLeft=34;spacingRight=4;overflow=hidden;rotatable=0;points=[[0,0.5],[1,0.5]];portConstraint=eastwest;dropTarget=0;fontSize=12;" vertex="1" parent="FK4Q3kuTDBUWVzhtZBnx-23">
          <mxGeometry y="82" width="160" height="26" as="geometry"/>
        </mxCell>
        <mxCell id="FK4Q3kuTDBUWVzhtZBnx-29" value="" style="shape=partialRectangle;top=0;left=0;bottom=0;fillColor=none;align=left;verticalAlign=top;spacingLeft=4;spacingRight=4;overflow=hidden;rotatable=0;points=[];portConstraint=eastwest;part=1;fontSize=12;" vertex="1" connectable="0" parent="FK4Q3kuTDBUWVzhtZBnx-28">
          <mxGeometry width="30" height="26" as="geometry"/>
        </mxCell>
        <mxCell id="FK4Q3kuTDBUWVzhtZBnx-30" value="sender(user_id)" style="shape=partialRectangle;top=0;left=0;right=0;bottom=0;align=left;verticalAlign=top;fillColor=none;spacingLeft=34;spacingRight=4;overflow=hidden;rotatable=0;points=[[0,0.5],[1,0.5]];portConstraint=eastwest;dropTarget=0;fontSize=12;" vertex="1" parent="FK4Q3kuTDBUWVzhtZBnx-23">
          <mxGeometry y="108" width="160" height="26" as="geometry"/>
        </mxCell>
        <mxCell id="FK4Q3kuTDBUWVzhtZBnx-31" value="" style="shape=partialRectangle;top=0;left=0;bottom=0;fillColor=none;align=left;verticalAlign=top;spacingLeft=4;spacingRight=4;overflow=hidden;rotatable=0;points=[];portConstraint=eastwest;part=1;fontSize=12;" vertex="1" connectable="0" parent="FK4Q3kuTDBUWVzhtZBnx-30">
          <mxGeometry width="30" height="26" as="geometry"/>
        </mxCell>
        <mxCell id="FK4Q3kuTDBUWVzhtZBnx-45" value="message" style="shape=partialRectangle;top=0;left=0;right=0;bottom=0;align=left;verticalAlign=top;fillColor=none;spacingLeft=34;spacingRight=4;overflow=hidden;rotatable=0;points=[[0,0.5],[1,0.5]];portConstraint=eastwest;dropTarget=0;fontSize=12;" vertex="1" parent="FK4Q3kuTDBUWVzhtZBnx-23">
          <mxGeometry y="134" width="160" height="26" as="geometry"/>
        </mxCell>
        <mxCell id="FK4Q3kuTDBUWVzhtZBnx-46" value="" style="shape=partialRectangle;top=0;left=0;bottom=0;fillColor=none;align=left;verticalAlign=top;spacingLeft=4;spacingRight=4;overflow=hidden;rotatable=0;points=[];portConstraint=eastwest;part=1;fontSize=12;" vertex="1" connectable="0" parent="FK4Q3kuTDBUWVzhtZBnx-45">
          <mxGeometry width="30" height="26" as="geometry"/>
        </mxCell>
        <mxCell id="FK4Q3kuTDBUWVzhtZBnx-47" value="date" style="shape=partialRectangle;top=0;left=0;right=0;bottom=0;align=left;verticalAlign=top;fillColor=none;spacingLeft=34;spacingRight=4;overflow=hidden;rotatable=0;points=[[0,0.5],[1,0.5]];portConstraint=eastwest;dropTarget=0;fontSize=12;" vertex="1" parent="FK4Q3kuTDBUWVzhtZBnx-23">
          <mxGeometry y="160" width="160" height="26" as="geometry"/>
        </mxCell>
        <mxCell id="FK4Q3kuTDBUWVzhtZBnx-48" value="" style="shape=partialRectangle;top=0;left=0;bottom=0;fillColor=none;align=left;verticalAlign=top;spacingLeft=4;spacingRight=4;overflow=hidden;rotatable=0;points=[];portConstraint=eastwest;part=1;fontSize=12;" vertex="1" connectable="0" parent="FK4Q3kuTDBUWVzhtZBnx-47">
          <mxGeometry width="30" height="26" as="geometry"/>
        </mxCell>
        <mxCell id="FK4Q3kuTDBUWVzhtZBnx-32" value="" style="shape=partialRectangle;top=0;left=0;right=0;bottom=0;align=left;verticalAlign=top;fillColor=none;spacingLeft=34;spacingRight=4;overflow=hidden;rotatable=0;points=[[0,0.5],[1,0.5]];portConstraint=eastwest;dropTarget=0;fontSize=12;" vertex="1" parent="FK4Q3kuTDBUWVzhtZBnx-23">
          <mxGeometry y="186" width="160" height="10" as="geometry"/>
        </mxCell>
        <mxCell id="FK4Q3kuTDBUWVzhtZBnx-33" value="" style="shape=partialRectangle;top=0;left=0;bottom=0;fillColor=none;align=left;verticalAlign=top;spacingLeft=4;spacingRight=4;overflow=hidden;rotatable=0;points=[];portConstraint=eastwest;part=1;fontSize=12;" vertex="1" connectable="0" parent="FK4Q3kuTDBUWVzhtZBnx-32">
          <mxGeometry width="30" height="10" as="geometry"/>
        </mxCell>
        <mxCell id="FK4Q3kuTDBUWVzhtZBnx-34" value="Files" style="swimlane;fontStyle=0;childLayout=stackLayout;horizontal=1;startSize=26;fillColor=#e0e0e0;horizontalStack=0;resizeParent=1;resizeParentMax=0;resizeLast=0;collapsible=1;marginBottom=0;swimlaneFillColor=#ffffff;align=center;fontSize=14;" vertex="1" parent="1">
          <mxGeometry x="600" y="20" width="160" height="144" as="geometry"/>
        </mxCell>
        <mxCell id="FK4Q3kuTDBUWVzhtZBnx-35" value="id" style="shape=partialRectangle;top=0;left=0;right=0;bottom=1;align=left;verticalAlign=middle;fillColor=none;spacingLeft=34;spacingRight=4;overflow=hidden;rotatable=0;points=[[0,0.5],[1,0.5]];portConstraint=eastwest;dropTarget=0;fontStyle=5;fontSize=12;" vertex="1" parent="FK4Q3kuTDBUWVzhtZBnx-34">
          <mxGeometry y="26" width="160" height="30" as="geometry"/>
        </mxCell>
        <mxCell id="FK4Q3kuTDBUWVzhtZBnx-36" value="PK" style="shape=partialRectangle;top=0;left=0;bottom=0;fillColor=none;align=left;verticalAlign=middle;spacingLeft=4;spacingRight=4;overflow=hidden;rotatable=0;points=[];portConstraint=eastwest;part=1;fontSize=12;" vertex="1" connectable="0" parent="FK4Q3kuTDBUWVzhtZBnx-35">
          <mxGeometry width="30" height="30" as="geometry"/>
        </mxCell>
        <mxCell id="FK4Q3kuTDBUWVzhtZBnx-37" value="name" style="shape=partialRectangle;top=0;left=0;right=0;bottom=0;align=left;verticalAlign=top;fillColor=none;spacingLeft=34;spacingRight=4;overflow=hidden;rotatable=0;points=[[0,0.5],[1,0.5]];portConstraint=eastwest;dropTarget=0;fontSize=12;" vertex="1" parent="FK4Q3kuTDBUWVzhtZBnx-34">
          <mxGeometry y="56" width="160" height="26" as="geometry"/>
        </mxCell>
        <mxCell id="FK4Q3kuTDBUWVzhtZBnx-38" value="" style="shape=partialRectangle;top=0;left=0;bottom=0;fillColor=none;align=left;verticalAlign=top;spacingLeft=4;spacingRight=4;overflow=hidden;rotatable=0;points=[];portConstraint=eastwest;part=1;fontSize=12;" vertex="1" connectable="0" parent="FK4Q3kuTDBUWVzhtZBnx-37">
          <mxGeometry width="30" height="26" as="geometry"/>
        </mxCell>
        <mxCell id="FK4Q3kuTDBUWVzhtZBnx-39" value="url" style="shape=partialRectangle;top=0;left=0;right=0;bottom=0;align=left;verticalAlign=top;fillColor=none;spacingLeft=34;spacingRight=4;overflow=hidden;rotatable=0;points=[[0,0.5],[1,0.5]];portConstraint=eastwest;dropTarget=0;fontSize=12;" vertex="1" parent="FK4Q3kuTDBUWVzhtZBnx-34">
          <mxGeometry y="82" width="160" height="26" as="geometry"/>
        </mxCell>
        <mxCell id="FK4Q3kuTDBUWVzhtZBnx-40" value="" style="shape=partialRectangle;top=0;left=0;bottom=0;fillColor=none;align=left;verticalAlign=top;spacingLeft=4;spacingRight=4;overflow=hidden;rotatable=0;points=[];portConstraint=eastwest;part=1;fontSize=12;" vertex="1" connectable="0" parent="FK4Q3kuTDBUWVzhtZBnx-39">
          <mxGeometry width="30" height="26" as="geometry"/>
        </mxCell>
        <mxCell id="FK4Q3kuTDBUWVzhtZBnx-41" value="post_id" style="shape=partialRectangle;top=0;left=0;right=0;bottom=0;align=left;verticalAlign=top;fillColor=none;spacingLeft=34;spacingRight=4;overflow=hidden;rotatable=0;points=[[0,0.5],[1,0.5]];portConstraint=eastwest;dropTarget=0;fontSize=12;" vertex="1" parent="FK4Q3kuTDBUWVzhtZBnx-34">
          <mxGeometry y="108" width="160" height="26" as="geometry"/>
        </mxCell>
        <mxCell id="FK4Q3kuTDBUWVzhtZBnx-42" value="" style="shape=partialRectangle;top=0;left=0;bottom=0;fillColor=none;align=left;verticalAlign=top;spacingLeft=4;spacingRight=4;overflow=hidden;rotatable=0;points=[];portConstraint=eastwest;part=1;fontSize=12;" vertex="1" connectable="0" parent="FK4Q3kuTDBUWVzhtZBnx-41">
          <mxGeometry width="30" height="26" as="geometry"/>
        </mxCell>
        <mxCell id="FK4Q3kuTDBUWVzhtZBnx-43" value="" style="shape=partialRectangle;top=0;left=0;right=0;bottom=0;align=left;verticalAlign=top;fillColor=none;spacingLeft=34;spacingRight=4;overflow=hidden;rotatable=0;points=[[0,0.5],[1,0.5]];portConstraint=eastwest;dropTarget=0;fontSize=12;" vertex="1" parent="FK4Q3kuTDBUWVzhtZBnx-34">
          <mxGeometry y="134" width="160" height="10" as="geometry"/>
        </mxCell>
        <mxCell id="FK4Q3kuTDBUWVzhtZBnx-44" value="" style="shape=partialRectangle;top=0;left=0;bottom=0;fillColor=none;align=left;verticalAlign=top;spacingLeft=4;spacingRight=4;overflow=hidden;rotatable=0;points=[];portConstraint=eastwest;part=1;fontSize=12;" vertex="1" connectable="0" parent="FK4Q3kuTDBUWVzhtZBnx-43">
          <mxGeometry width="30" height="10" as="geometry"/>
        </mxCell>
        <mxCell id="FK4Q3kuTDBUWVzhtZBnx-49" value="" style="edgeStyle=entityRelationEdgeStyle;fontSize=12;html=1;endArrow=ERmany;" edge="1" parent="1" source="FK4Q3kuTDBUWVzhtZBnx-1" target="FK4Q3kuTDBUWVzhtZBnx-12">
          <mxGeometry width="100" height="100" relative="1" as="geometry">
            <mxPoint x="60" y="620" as="sourcePoint"/>
            <mxPoint x="160" y="520" as="targetPoint"/>
          </mxGeometry>
        </mxCell>
        <mxCell id="FK4Q3kuTDBUWVzhtZBnx-50" value="" style="edgeStyle=entityRelationEdgeStyle;fontSize=12;html=1;endArrow=ERmany;" edge="1" parent="1" source="FK4Q3kuTDBUWVzhtZBnx-12" target="FK4Q3kuTDBUWVzhtZBnx-23">
          <mxGeometry width="100" height="100" relative="1" as="geometry">
            <mxPoint x="60" y="620" as="sourcePoint"/>
            <mxPoint x="160" y="520" as="targetPoint"/>
          </mxGeometry>
        </mxCell>
        <mxCell id="FK4Q3kuTDBUWVzhtZBnx-51" value="" style="edgeStyle=entityRelationEdgeStyle;fontSize=12;html=1;endArrow=ERmany;" edge="1" parent="1" source="FK4Q3kuTDBUWVzhtZBnx-1" target="FK4Q3kuTDBUWVzhtZBnx-23">
          <mxGeometry width="100" height="100" relative="1" as="geometry">
            <mxPoint x="60" y="620" as="sourcePoint"/>
            <mxPoint x="160" y="520" as="targetPoint"/>
          </mxGeometry>
        </mxCell>
        <mxCell id="FK4Q3kuTDBUWVzhtZBnx-52" value="" style="edgeStyle=entityRelationEdgeStyle;fontSize=12;html=1;endArrow=ERmany;" edge="1" parent="1" source="FK4Q3kuTDBUWVzhtZBnx-12" target="FK4Q3kuTDBUWVzhtZBnx-34">
          <mxGeometry width="100" height="100" relative="1" as="geometry">
            <mxPoint x="60" y="620" as="sourcePoint"/>
            <mxPoint x="160" y="520" as="targetPoint"/>
          </mxGeometry>
        </mxCell>
      </root>
    </mxGraphModel>
  </diagram>
</mxfile>
